<?xml version="1.0" standalone="no"?>
<!DOCTYPE svg PUBLIC "-//W3C//DTD SVG 20010904//EN"
 "http://www.w3.org/TR/2001/REC-SVG-20010904/DTD/svg10.dtd">
<svg version="1.0" xmlns="http://www.w3.org/2000/svg"
 width="354.000000pt" height="319.000000pt" viewBox="0 0 354.000000 319.000000"
 preserveAspectRatio="xMidYMid meet">
<metadata>
Created by potrace 1.16, written by Peter Selinger 2001-2019
</metadata>
<g transform="translate(0.000000,319.000000) scale(0.100000,-0.100000)"
fill="#000000" stroke="none">
<path d="M67 2050 c-4 -596 -7 -1284 -7 -1530 l0 -447 1082 -6 c595 -4 1362
-7 1705 -7 l623 0 0 758 c0 416 3 1104 7 1528 l6 772 -944 1 c-519 0 -1286 4
-1705 7 l-761 7 -6 -1083z m1353 649 l0 -190 43 3 42 3 3 188 2 187 80 0 80 0
0 -191 0 -190 43 3 42 3 3 188 2 188 78 -3 77 -3 3 -187 2 -188 39 0 38 0 6
107 c4 58 7 141 7 185 l0 78 80 0 80 0 0 -79 0 -80 48 -6 c69 -9 138 -43 169
-84 29 -37 53 -114 53 -168 l0 -33 80 0 80 0 0 -80 0 -80 -180 0 -180 0 0 -45
0 -45 180 0 180 0 0 -80 0 -80 -180 0 -180 0 0 -45 0 -45 180 0 180 0 0 -80 0
-80 -179 0 -179 0 -5 -37 c-2 -21 -2 -41 0 -45 2 -5 83 -8 179 -8 l174 0 0
-80 0 -80 -136 0 -136 0 46 -52 c43 -49 46 -57 46 -107 0 -74 -17 -91 -88 -91
-54 0 -56 1 -108 58 l-53 57 -1 -141 0 -142 75 -4 c66 -3 78 -7 102 -31 25
-24 28 -36 31 -106 7 -143 -30 -181 -176 -181 -88 0 -91 1 -121 31 -30 30 -31
33 -31 126 0 91 1 96 29 124 l29 29 -49 0 -49 0 0 175 0 175 -45 0 -45 0 0
-215 0 -215 40 0 40 0 0 -100 c0 -93 1 -100 20 -100 18 0 20 -7 20 -54 0 -64
1 -63 -142 -73 l-97 -6 -5 34 c-3 19 -11 61 -17 94 -6 33 -13 189 -16 348 l-6
287 -43 0 -44 0 0 -225 c0 -216 -1 -225 -19 -225 -18 0 -20 -9 -23 -95 -3
-103 -3 -105 65 -105 27 0 27 -1 27 -61 l0 -62 -82 6 c-46 4 -98 7 -117 7
l-33 0 6 118 c3 64 9 235 12 380 l6 262 -41 0 -41 0 0 -98 c0 -55 -3 -133 -6
-175 l-7 -77 -63 0 -64 0 0 -65 c0 -58 -2 -65 -20 -65 -17 0 -20 -7 -20 -50 0
-73 -20 -90 -110 -90 -116 0 -154 35 -148 136 3 45 5 49 30 52 24 3 26 8 30
53 2 41 0 49 -14 49 -13 0 -18 -8 -18 -30 0 -27 -3 -30 -30 -30 -29 0 -30 -2
-30 -45 l0 -45 -54 0 c-48 0 -58 4 -100 41 -45 39 -46 42 -46 97 0 56 1 58 66
130 65 71 66 72 115 72 l49 0 0 47 c0 45 4 51 61 109 58 58 60 62 39 69 -12 4
-51 4 -86 0 -35 -3 -88 -3 -119 0 l-55 7 0 79 0 79 175 0 175 0 0 40 0 40 -98
0 c-55 0 -134 3 -176 7 l-77 6 3 76 3 76 173 3 172 2 0 40 0 40 -172 2 -173 3
-3 30 c-2 16 -1 53 3 82 l6 53 170 0 169 0 0 40 0 40 -170 0 -170 0 0 85 0 85
79 0 78 0 6 60 c15 135 103 220 229 220 l38 0 0 85 0 85 80 0 80 0 0 -191z
m-705 -930 c15 -48 25 -104 25 -140 l0 -59 -55 0 c-49 0 -55 2 -61 24 -6 24
-7 24 -46 10 -22 -8 -69 -14 -105 -14 l-64 0 3 62 3 62 83 24 82 25 0 43 0 44
55 0 54 0 26 -81z m2145 51 c0 -5 26 -10 58 -10 31 0 62 -4 69 -8 31 -20 42
-113 23 -184 -15 -51 -42 -68 -112 -68 -51 0 -58 2 -58 20 0 17 -7 20 -45 20
-38 0 -45 -3 -45 -20 0 -16 7 -20 35 -20 28 0 35 -4 35 -20 0 -15 7 -20 28
-20 15 0 36 7 46 15 32 24 147 20 180 -6 24 -19 26 -27 26 -93 0 -105 -5 -109
-123 -105 -71 3 -98 1 -102 -8 -3 -9 9 -13 43 -13 27 0 57 -7 70 -16 20 -14
22 -24 22 -98 0 -109 -8 -119 -87 -114 -59 3 -60 2 -47 -17 20 -28 19 -144 -2
-173 -13 -19 -24 -22 -87 -22 -50 0 -80 5 -95 16 -32 22 -30 -5 3 -36 21 -20
25 -33 25 -82 l0 -58 -53 0 c-44 0 -58 4 -77 25 -17 18 -34 25 -62 25 l-38 0
0 52 c0 47 4 56 37 90 33 34 43 38 85 38 l48 0 0 58 c0 87 11 97 109 97 l81 0
-40 19 c-39 19 -40 21 -40 70 0 33 7 62 20 84 l20 32 -28 0 c-15 0 -65 21
-112 48 l-85 47 -3 55 c-2 46 2 65 28 113 27 48 36 57 59 57 27 0 28 1 23 55
-10 124 16 165 108 165 33 0 60 -4 60 -10z m-2353 -276 c20 -6 38 -36 45 -77
3 -14 14 -10 71 28 65 44 71 46 130 43 60 -3 62 -4 84 -43 17 -30 23 -56 23
-102 0 -76 -20 -103 -75 -103 -39 0 -55 -20 -55 -69 0 -31 -1 -31 -53 -31 -50
0 -56 -3 -105 -50 -50 -48 -55 -50 -107 -50 l-55 0 0 44 c0 35 -4 45 -20 49
-17 4 -20 14 -20 61 l0 56 118 2 c64 1 100 3 80 5 -30 3 -38 9 -38 24 0 15 -7
19 -35 19 -19 0 -35 -4 -35 -10 0 -6 -26 -10 -59 -10 -71 0 -91 19 -91 86 0
77 10 105 44 120 32 14 115 18 153 8z m2146 -268 c64 -71 67 -77 67 -125 l0
-51 -67 0 -68 0 3 -65 4 -65 -50 0 c-49 0 -51 1 -126 78 -75 76 -76 78 -76
130 l0 52 68 0 67 0 -3 60 -4 60 59 0 58 0 68 -74z m-1953 -200 c0 -50 -3 -56
-30 -73 -25 -15 -30 -23 -30 -57 l0 -40 33 32 c29 28 39 32 90 32 l57 0 0 -50
0 -50 49 0 c39 0 53 -5 75 -26 23 -24 26 -34 26 -102 l0 -75 23 21 c19 18 35
22 87 22 l63 0 -6 -103 c-7 -137 -7 -137 -73 -137 -51 0 -54 1 -54 25 0 23 -4
25 -40 25 l-40 0 0 55 0 55 -74 0 c-100 0 -126 19 -126 94 0 28 6 59 13 66 10
13 10 13 -2 3 -8 -7 -39 -13 -68 -13 l-53 0 0 55 0 55 -42 0 c-38 0 -46 4 -65
35 -17 25 -23 50 -23 89 0 53 1 54 48 85 39 25 57 31 105 31 l57 0 0 -54z
m1694 -416 c6 -45 9 -50 31 -50 24 0 25 -3 25 -58 0 -57 -1 -59 -35 -75 -21
-10 -60 -17 -93 -17 l-57 0 -27 49 c-21 37 -28 62 -28 104 0 51 2 57 33 76 22
15 49 21 88 21 l56 0 7 -50z m-1065 -41 c42 -15 51 -35 51 -118 0 -98 -14
-111 -116 -111 -41 0 -84 5 -95 10 -27 15 -25 87 3 168 l22 62 51 0 c29 0 66
-5 84 -11z m871 -27 c0 -16 -3 -70 -6 -120 l-7 -92 -53 0 -52 0 -17 50 c-14
42 -21 50 -41 50 -22 0 -24 4 -24 54 l0 54 43 15 c23 9 68 16 100 16 56 1 57
1 57 -27z m-216 -49 c4 -10 10 -61 13 -114 l6 -97 -97 -7 c-57 -4 -101 -4
-107 2 -5 5 -12 57 -15 115 l-7 107 49 4 c124 9 152 8 158 -10z m-253 -58 c10
-27 18 -78 18 -112 1 -72 10 -69 -132 -57 l-77 7 0 53 c0 35 9 73 25 109 l24
56 62 -3 62 -3 18 -50z"/>
<path d="M1354 2329 c-8 -9 -14 -37 -14 -67 l0 -52 38 0 c34 0 199 -41 222
-55 11 -7 13 -76 4 -125 l-7 -32 -81 5 c-45 2 -102 12 -128 20 l-48 16 0 -133
c0 -73 -3 -160 -6 -193 -6 -53 -4 -63 15 -82 19 -19 32 -21 141 -21 l121 0 -3
63 -3 62 -35 5 -35 5 0 75 0 75 158 3 158 3 -3 -83 -3 -83 -37 -3 -38 -3 0
-60 0 -59 138 0 c94 0 142 4 150 12 9 9 12 70 12 214 l0 202 -72 -19 c-40 -10
-103 -19 -139 -19 -77 0 -79 3 -79 100 l0 55 104 28 c57 15 122 27 145 27 l41
0 0 54 c0 31 -5 58 -13 64 -7 7 -136 12 -350 14 -298 3 -340 1 -353 -13z"/>
<path d="M1185 1310 c-50 -50 -65 -60 -94 -60 -32 0 -33 -1 -18 -18 10 -10 17
-35 17 -55 l0 -37 54 0 c30 0 66 -4 80 -10 l26 -10 0 125 c0 69 -1 125 -3 125
-1 0 -29 -27 -62 -60z"/>
</g>
</svg>
