<?xml version="1.0" standalone="no"?>
<!DOCTYPE svg PUBLIC "-//W3C//DTD SVG 20010904//EN"
 "http://www.w3.org/TR/2001/REC-SVG-20010904/DTD/svg10.dtd">
<svg version="1.0" xmlns="http://www.w3.org/2000/svg"
 width="351.000000pt" height="316.000000pt" viewBox="0 0 351.000000 316.000000"
 preserveAspectRatio="xMidYMid meet">
<metadata>
Created by potrace 1.16, written by Peter Selinger 2001-2019
</metadata>
<g transform="translate(0.000000,316.000000) scale(0.100000,-0.100000)"
fill="#000000" stroke="none">
<path d="M0 1580 l0 -1580 1755 0 1755 0 0 1580 0 1580 -1755 0 -1755 0 0
-1580z m1350 1055 l0 -185 95 0 95 0 0 185 0 185 30 0 30 0 0 -185 0 -185 95
0 95 0 0 185 0 185 30 0 30 0 0 -185 0 -185 95 0 95 0 0 185 0 185 30 0 30 0
0 -85 0 -85 48 0 c29 0 67 -10 99 -25 72 -33 110 -92 119 -186 l7 -69 78 0 79
0 0 -30 0 -30 -180 0 -180 0 0 -95 0 -95 180 0 180 0 0 -30 0 -30 -180 0 -180
0 0 -95 0 -95 180 0 180 0 0 -30 0 -30 -180 0 -180 0 0 -95 0 -95 180 0 180 0
0 -30 0 -30 -181 0 c-211 0 -202 14 -75 -125 l79 -86 -22 -22 -22 -22 -31 35
c-122 136 -148 162 -163 156 -13 -4 -15 -33 -15 -186 l0 -180 -30 0 -30 0 0
175 0 175 -95 0 -95 0 0 -230 0 -230 -30 0 -30 0 0 230 0 230 -95 0 -95 0 0
-230 0 -230 -30 0 -30 0 0 230 0 230 -95 0 -95 0 0 -175 0 -175 -30 0 -30 0 0
180 c0 136 -3 180 -12 180 -7 0 -59 -46 -115 -102 l-103 -103 -22 23 -23 22
103 103 c56 56 102 108 102 115 0 9 -44 12 -180 12 l-180 0 0 30 0 30 175 0
175 0 0 95 0 95 -175 0 -175 0 0 30 0 30 175 0 175 0 0 95 0 95 -175 0 -175 0
0 30 0 30 175 0 176 0 -3 93 -3 92 -172 3 -173 2 0 30 0 30 84 0 85 0 0 58 c0
96 42 165 123 202 24 11 64 20 91 20 l47 0 0 85 0 85 30 0 30 0 0 -185z m-582
-1194 c24 -43 28 -81 10 -99 -15 -15 -65 -16 -74 0 -7 12 -28 -34 -44 -97 -6
-26 -8 -28 -15 -11 -5 12 -2 37 8 67 30 84 17 106 -38 65 -39 -30 -48 -32 -43
-11 2 13 152 123 169 124 3 1 15 -16 27 -38z m1482 -416 c64 -33 75 -117 23
-169 -50 -51 -115 -52 -163 -4 -23 23 -30 39 -30 69 0 51 13 75 53 99 38 24
78 25 117 5z"/>
<path d="M1172 2569 c-54 -27 -82 -78 -82 -149 l0 -50 64 0 c56 0 66 3 71 20
4 11 20 27 36 35 28 15 29 18 29 90 l0 75 -37 0 c-21 0 -57 -10 -81 -21z"/>
<path d="M2100 2515 c0 -68 2 -76 25 -91 13 -9 27 -24 30 -35 5 -16 16 -19 75
-19 67 0 69 0 72 28 4 36 -10 102 -28 130 -20 31 -89 62 -136 62 l-38 0 0 -75z"/>
<path d="M1280 2361 c-14 -27 -14 -765 0 -792 10 -18 23 -19 190 -19 l180 0 0
110 0 110 -40 0 c-39 0 -40 1 -40 35 l0 35 105 0 105 0 0 -35 c0 -33 -2 -35
-35 -35 l-35 0 0 -110 0 -110 190 0 c177 0 190 1 200 19 6 13 10 156 10 396 0
240 -4 383 -10 396 -10 18 -25 19 -410 19 -385 0 -400 -1 -410 -19z"/>
<path d="M2125 995 c-31 -30 -32 -72 -2 -115 27 -41 67 -56 106 -40 55 22 67
99 25 149 -34 41 -92 44 -129 6z"/>
</g>
</svg>
