<svg version="1.1" id="Layer_1" xmlns="http://www.w3.org/2000/svg" xmlns:xlink="http://www.w3.org/1999/xlink" x="0px" y="0px"
	 width="100%" viewBox="0 0 351 316" enable-background="new 0 0 351 316" xml:space="preserve">
<path fill="#242424" opacity="1.000000" stroke="none" 
	d="
M201.000000,317.000000 
	C134.000000,317.000000 67.500000,317.000000 1.000000,317.000000 
	C1.000000,211.666672 1.000000,106.333336 1.000000,1.000000 
	C118.000000,1.000000 235.000000,1.000000 352.000000,1.000000 
	C352.000000,106.333336 352.000000,211.666672 352.000000,317.000000 
	C301.833344,317.000000 251.666672,317.000000 201.000000,317.000000 
M281.711304,224.141052 
	C282.190063,223.911087 282.668823,223.681137 283.147583,223.451172 
	C283.036285,223.225494 282.925018,222.999802 282.813721,222.774124 
	C282.161743,223.153244 281.509796,223.532379 280.673218,224.144638 
	C280.689728,224.369232 280.706238,224.593826 280.722748,224.818420 
	C280.890228,224.613174 281.057678,224.407944 281.711304,224.141052 
M281.167297,218.549255 
	C281.713806,218.847839 282.260345,219.146408 282.806854,219.444992 
	C282.920837,219.178650 283.034821,218.912292 283.148804,218.645950 
	C282.453552,218.409241 281.758331,218.172546 280.850250,217.386322 
	C280.075348,216.508636 279.300446,215.630951 278.525543,214.753265 
	C278.228973,215.138565 277.932404,215.523849 277.635864,215.909134 
	C278.735168,216.631516 279.834503,217.353897 281.167297,218.549255 
M276.034912,227.128693 
	C276.034912,227.128693 276.067108,226.953308 275.998810,226.309235 
	C275.100159,225.440857 274.201477,224.572495 273.302826,223.704132 
	C273.003937,224.151352 272.705017,224.598587 272.406128,225.045807 
	C273.591095,225.716003 274.776062,226.386185 276.034912,227.128693 
M82.835136,240.769119 
	C81.287415,242.637146 79.739700,244.505173 77.925346,246.695023 
	C79.289101,247.729736 80.427986,248.593842 82.125328,249.971283 
	C85.803635,252.299805 88.803757,251.217911 90.997948,247.859879 
	C93.252075,244.410141 92.604034,241.313583 88.706512,238.405411 
	C85.543015,235.173798 84.808128,238.752258 82.835136,240.769119 
M301.871521,170.455872 
	C298.503174,168.621368 295.038116,168.143051 292.733795,171.702530 
	C291.714264,173.277359 292.138763,175.787003 291.907745,177.872284 
	C292.357239,177.922089 292.806763,177.971878 293.256287,178.021683 
	C292.888763,171.346649 294.576080,170.163910 302.133270,172.345840 
	C302.581055,172.469421 303.028809,172.592987 303.476593,172.716553 
	C303.122345,172.145035 302.768066,171.573502 301.871521,170.455872 
M282.787109,198.664978 
	C280.786011,201.811722 283.965179,202.115402 285.346741,202.433716 
	C288.424683,203.142883 290.795074,207.380676 294.601318,204.454178 
	C294.713867,204.367645 294.511627,203.871719 294.456146,203.566681 
	C294.181519,203.964478 293.906921,204.362274 293.632294,204.760071 
	C290.427277,202.493149 287.222290,200.226227 284.109344,197.611740 
	C283.992004,197.346405 283.874664,197.081085 283.757294,196.815781 
	C283.505524,197.212189 283.253754,197.608597 282.787109,198.664978 
M72.947479,181.655136 
	C72.371147,181.552429 71.794807,181.449738 70.626526,180.965530 
	C69.805931,179.699158 68.985336,178.432770 67.470764,176.095413 
	C71.176231,174.950562 74.113617,174.043015 77.065964,173.660233 
	C77.431427,174.103958 77.796890,174.547668 78.162338,174.991394 
	C78.295326,174.722565 78.602234,174.283646 78.532867,174.212708 
	C78.105659,173.775879 77.593529,173.422104 77.050224,172.323502 
	C76.482887,171.232407 75.915558,170.141312 75.351509,169.056534 
	C63.107052,175.441788 57.718452,179.955444 58.933338,182.894409 
	C61.443802,181.295029 63.930416,179.710846 66.529709,178.054871 
	C69.204964,180.959030 67.386803,183.342758 66.349266,185.904846 
	C65.191833,188.762955 63.348667,191.846832 65.985611,194.319336 
	C67.723244,190.281616 69.367455,186.460983 71.526390,183.122681 
	C74.376801,185.087921 77.240532,185.127380 79.294724,182.249847 
	C80.203758,180.976456 79.992043,178.902985 80.494621,176.009552 
	C77.707550,178.733444 76.233910,180.173676 74.450455,181.450439 
	C74.219162,181.348038 74.009270,181.380600 72.947479,181.655136 
M227.692444,232.049347 
	C232.103210,227.994873 233.106964,223.082993 230.477982,218.418442 
	C228.199738,214.376205 224.130783,212.627487 220.175446,213.990738 
	C229.615494,218.874481 231.420639,224.533310 225.616287,232.130981 
	C225.626221,232.454697 225.636154,232.778412 225.646088,233.102112 
	C226.099792,232.834824 226.553497,232.567520 227.692444,232.049347 
M122.150383,273.669708 
	C122.781471,273.846222 123.405952,274.052521 124.044708,274.194550 
	C128.996796,275.295563 132.192627,273.249146 132.864822,268.559692 
	C133.470352,264.335388 131.194214,262.129272 125.777931,261.379364 
	C125.374619,261.262909 124.971306,261.146454 124.567993,261.029968 
	C123.665695,265.010773 122.763397,268.991547 122.150383,273.669708 
M214.264542,214.992859 
	C208.767334,218.327530 206.915268,224.684601 209.942810,229.826981 
	C212.938721,234.915695 218.609360,236.787186 222.285141,234.787308 
	C219.766357,233.341293 216.121109,232.162842 213.812347,229.720810 
	C209.790070,225.466385 210.408539,221.981537 215.335480,215.107437 
	C215.678207,214.944077 216.020920,214.780716 216.363647,214.617355 
	C216.171890,214.441895 215.980133,214.266434 215.788361,214.090942 
	C215.519913,214.404724 215.251450,214.718506 214.264542,214.992859 
M269.806702,165.884583 
	C265.812622,167.108597 263.397797,169.719467 262.578491,174.338684 
	C268.585114,177.636612 274.631592,180.956406 281.140259,184.529953 
	C283.419678,180.258545 285.480133,176.397507 287.540588,172.536469 
	C287.114655,172.297852 286.688721,172.059235 286.262756,171.820618 
	C284.431671,174.846146 282.600555,177.871658 280.319733,181.640289 
	C277.663391,179.085526 275.150848,177.129532 273.357910,174.652664 
	C272.846863,173.946686 274.425934,171.727692 275.046570,170.202499 
	C273.283600,176.991882 271.996643,177.160919 265.477234,171.906097 
	C265.869904,171.077103 266.405090,170.230408 266.671051,169.306229 
	C266.937225,168.381226 266.655396,167.200073 267.128723,166.461014 
	C267.594971,165.733017 268.706940,165.418594 268.744293,164.946564 
	C268.985748,164.542908 269.227173,164.139252 269.468628,163.735611 
	C269.769318,164.000397 270.070007,164.265182 270.370728,164.529968 
	C270.050446,164.673111 269.730194,164.816254 269.806702,165.884583 
M186.084061,198.496613 
	C186.084061,188.735077 186.084061,178.973541 186.084061,169.188843 
	C192.586777,169.188843 198.368820,169.188843 204.728958,169.188843 
	C204.728958,180.998138 204.728958,192.572556 204.728958,204.218842 
	C207.078690,204.218842 208.838562,204.218842 211.009796,204.218842 
	C211.009796,193.469131 210.935577,183.004883 211.082169,172.543716 
	C211.106888,170.780228 212.084610,169.030090 212.622025,167.273773 
	C214.039871,168.223953 215.688049,168.955109 216.835754,170.162155 
	C221.849106,175.434784 226.717194,180.845551 231.899979,186.491531 
	C233.631302,184.837082 234.988754,183.539917 236.474579,182.120071 
	C230.153214,175.116226 224.201630,168.522079 217.529541,161.129639 
	C230.371521,161.129639 242.078720,161.129639 253.932800,161.129639 
	C253.932800,158.919754 253.932800,157.140198 253.932800,154.768494 
	C242.037735,154.768494 230.296005,154.768494 218.472656,154.768494 
	C218.472656,148.296997 218.472656,142.425232 218.472656,136.105255 
	C230.449265,136.105255 242.044876,136.105255 253.863983,136.105255 
	C253.863983,133.908127 253.863983,132.168976 253.863983,129.839951 
	C241.929169,129.839951 230.202545,129.839951 218.351807,129.839951 
	C218.351807,123.488419 218.351807,117.728508 218.351807,111.330002 
	C230.324020,111.330002 242.048279,111.330002 253.863464,111.330002 
	C253.863464,108.928146 253.863464,107.169746 253.863464,104.871567 
	C241.897629,104.871567 230.160782,104.871567 218.360947,104.871567 
	C218.360947,98.567291 218.360947,92.807503 218.360947,86.418030 
	C230.346222,86.418030 242.070251,86.418030 253.846024,86.418030 
	C253.846024,84.017685 253.846024,82.260643 253.846024,79.872482 
	C248.392761,79.872482 243.179138,79.872482 237.812729,79.872482 
	C238.152802,71.590240 237.292450,64.224617 231.730087,58.314445 
	C226.191879,52.429970 218.697464,51.682636 210.825867,51.222046 
	C210.825867,45.490246 210.825867,40.243748 210.825867,35.008278 
	C208.594742,35.008278 206.843964,35.008278 204.660767,35.008278 
	C204.660767,47.405949 204.660767,59.512199 204.660767,71.948669 
	C198.340607,71.948669 192.456055,71.948669 185.993103,71.948669 
	C185.993103,59.474613 185.993103,47.257275 185.993103,35.016403 
	C183.652145,35.016403 181.891129,35.016403 179.710495,35.016403 
	C179.710495,47.425739 179.710495,59.538673 179.710495,71.955673 
	C173.412903,71.955673 167.538177,71.955673 161.047943,71.955673 
	C161.047943,59.426601 161.047943,47.215935 161.047943,35.041862 
	C158.674957,35.041862 156.922089,35.041862 154.774887,35.041862 
	C154.774887,47.477142 154.774887,59.588600 154.774887,71.927399 
	C148.486221,71.927399 142.599518,71.927399 136.286591,71.927399 
	C136.286591,59.463093 136.286591,47.351910 136.286591,35.037956 
	C133.966217,35.037956 132.077713,35.037956 129.773346,35.037956 
	C129.773346,40.625202 129.773346,45.884811 129.773346,51.081043 
	C109.251320,53.531639 105.857712,57.194420 103.015572,80.032051 
	C97.840271,80.032051 92.584396,80.032051 87.286263,80.032051 
	C87.286263,82.446030 87.286263,84.309311 87.286263,86.751869 
	C98.905083,86.751869 110.144547,86.751869 121.516960,86.751869 
	C121.516960,93.081856 121.516960,98.822189 121.516960,105.136742 
	C109.837646,105.136742 98.450539,105.136742 87.222321,105.136742 
	C87.222321,107.473083 87.222321,109.227379 87.222321,111.502167 
	C98.799942,111.502167 110.061615,111.502167 121.392982,111.502167 
	C121.392982,117.914139 121.392982,123.791573 121.392982,130.112823 
	C109.705193,130.112823 98.439026,130.112823 87.218063,130.112823 
	C87.218063,132.315674 87.218063,134.057465 87.218063,136.273331 
	C98.780960,136.273331 110.034790,136.273331 121.440704,136.273331 
	C121.440704,142.631744 121.440704,148.504929 121.440704,154.876465 
	C109.816002,154.876465 98.560791,154.876465 87.125931,154.876465 
	C87.125931,157.138153 87.125931,158.894775 87.125931,161.429077 
	C99.139359,161.429077 110.941475,161.429077 122.743591,161.429077 
	C122.985306,161.909683 123.227028,162.390289 123.468750,162.870911 
	C116.499100,169.996094 109.529457,177.121292 102.444313,184.364563 
	C104.141380,185.935425 105.447205,187.144135 106.981186,188.564041 
	C114.573723,181.610840 121.168274,173.933975 128.752075,167.403671 
	C129.238251,167.767899 129.724426,168.132126 130.210602,168.496368 
	C130.210602,180.409409 130.210602,192.322449 130.210602,204.537476 
	C132.482315,204.429657 134.224396,204.346970 136.356964,204.245758 
	C136.356964,192.361420 136.356964,180.918427 136.356964,169.236328 
	C142.676422,169.236328 148.575226,169.236328 155.040436,169.236328 
	C155.040436,184.415604 155.040436,199.306686 155.040436,214.221710 
	C157.349869,214.221710 159.087494,214.221710 161.405930,214.221710 
	C161.405930,198.975739 161.405930,184.076599 161.405930,169.216248 
	C167.765167,169.216248 173.535721,169.216248 179.899231,169.216248 
	C179.899231,184.371887 179.899231,199.261261 179.899231,214.245819 
	C182.238144,214.245819 183.975769,214.245819 186.084061,214.245819 
	C186.084061,209.109894 186.084061,204.301971 186.084061,198.496613 
M185.641235,224.909851 
	C185.759750,224.793381 185.903320,224.691513 185.984024,224.553009 
	C186.014755,224.500244 185.910385,224.283295 185.852173,224.276657 
	C184.286926,224.098511 182.719681,223.938004 180.419357,223.697998 
	C181.677124,231.304626 182.815857,238.191269 184.017639,245.459290 
	C189.033676,244.602875 193.274200,243.878860 197.514725,243.154861 
	C197.448914,242.665665 197.383118,242.176483 197.317307,241.687302 
	C193.734299,242.079697 190.151291,242.472076 186.092010,242.916626 
	C187.100510,239.386337 182.761215,235.717941 187.498581,233.527451 
	C183.832031,231.658066 183.271072,228.748856 185.641235,224.909851 
M294.369598,151.259567 
	C294.490845,151.519073 294.583099,151.799637 294.748383,152.027176 
	C294.809998,152.112015 295.042175,152.072998 295.196594,152.090454 
	C295.044830,149.347794 295.751068,146.106781 294.521576,143.990158 
	C293.024963,141.413696 289.757050,141.174286 287.143890,143.407913 
	C285.770660,144.581711 284.431458,145.877792 283.391022,147.341904 
	C280.944794,150.784195 278.561920,153.750519 274.418732,148.295761 
	C275.309631,153.799042 278.851898,155.670959 282.227142,152.943024 
	C284.124023,151.409943 285.319641,149.012665 287.208252,147.464783 
	C288.606079,146.319153 290.612122,145.915604 292.347229,145.181458 
	C293.081512,146.973526 293.815765,148.765579 294.369598,151.259567 
M153.373779,234.705582 
	C153.175201,237.988785 152.976639,241.271988 152.756439,244.912735 
	C157.337631,245.284256 161.559738,245.626663 165.781830,245.969070 
	C165.840012,245.511078 165.898193,245.053070 165.956375,244.595062 
	C162.687805,244.104019 159.419220,243.612991 155.883301,243.081787 
	C156.284561,236.329269 156.664932,229.928238 157.045303,223.527222 
	C156.278656,223.448410 155.511993,223.369614 154.745331,223.290802 
	C154.339722,226.800903 153.934128,230.311005 153.373779,234.705582 
M117.889816,210.580704 
	C114.904106,209.371231 112.056671,209.037506 109.977219,212.162003 
	C107.824196,215.397034 109.863869,217.858810 111.782028,220.129364 
	C114.917488,223.840820 118.509903,227.375931 111.091034,231.699036 
	C118.781578,230.493561 120.458755,227.116257 117.004829,221.943039 
	C115.724228,220.024994 113.961006,218.413528 112.790741,216.441025 
	C110.967468,213.367859 112.258400,211.377090 115.829437,211.325470 
	C116.655945,211.313538 117.480827,211.189362 117.889816,210.580704 
M91.613533,199.184143 
	C92.978523,198.082596 94.343521,196.981033 96.138039,195.532837 
	C95.469162,194.801331 94.586990,193.836563 93.498634,192.646301 
	C88.575714,198.298462 84.033524,203.513489 79.870171,208.293549 
	C81.191269,210.211548 82.206123,211.684921 83.768387,213.953033 
	C83.134125,207.245987 86.606659,203.185806 90.538574,203.805527 
	C90.745003,202.432861 90.952126,201.055573 91.613533,199.184143 
M56.035545,152.404541 
	C59.661663,152.218048 63.290417,147.476257 67.776794,152.146820 
	C66.816887,149.008316 65.856972,145.869812 64.897064,142.731308 
	C64.215561,142.655426 63.534054,142.579559 62.852547,142.503677 
	C65.369247,146.873367 62.745384,147.408218 60.059120,148.159103 
	C56.075577,149.272644 52.124931,150.529190 48.232574,151.926285 
	C47.234867,152.284393 46.508369,153.398087 45.657269,154.164658 
	C45.912346,154.543228 46.167423,154.921799 46.422501,155.300369 
	C49.380566,154.435593 52.338627,153.570801 56.035545,152.404541 
M55.739975,193.879471 
	C51.188892,193.879471 46.637810,193.879471 42.086727,193.879471 
	C48.565060,197.508377 49.024696,198.493652 47.171600,205.005264 
	C50.145428,201.493423 53.119255,197.981567 55.739975,193.879471 
M251.657608,200.974426 
	C247.660538,200.615555 243.663467,200.256683 238.259262,199.771454 
	C240.673141,202.387741 242.064926,203.896225 243.456711,205.404694 
	C243.467163,204.865387 243.477631,204.326080 243.488098,203.786758 
	C251.061508,202.041901 259.067780,204.014648 267.471741,202.922531 
	C265.484314,201.031967 264.106323,199.721100 262.728302,198.410248 
	C262.684937,198.992493 262.641571,199.574753 262.598206,200.156998 
	C259.263672,200.429489 255.929108,200.701981 251.657608,200.974426 
M167.537460,272.924347 
	C166.634659,271.945648 165.731842,270.966949 164.829025,269.988251 
	C164.018265,270.904663 163.033356,271.721222 162.437378,272.760742 
	C161.533508,274.337372 160.765396,276.024902 160.199966,277.750580 
	C159.837753,278.856049 159.944016,280.115021 159.890854,280.724823 
	C163.848663,277.168457 165.372955,277.238068 170.512680,282.534912 
	C169.422516,278.875885 168.641342,276.254028 167.537460,272.924347 
M226.362854,256.001068 
	C228.024063,259.935547 229.685287,263.869995 231.510757,268.193512 
	C235.007889,266.258850 237.613922,264.817139 240.219971,263.375427 
	C239.993271,262.925842 239.766571,262.476227 239.539871,262.026642 
	C238.057526,262.789856 236.643219,263.900055 235.071655,264.208252 
	C233.777649,264.462006 232.297150,263.764893 229.829117,263.278046 
	C232.573624,261.037384 233.945923,259.917023 235.318222,258.796661 
	C229.746246,259.894318 229.746246,259.894318 228.673416,256.767914 
	C230.494995,255.546417 232.318893,254.323380 234.142792,253.100327 
	C233.937836,252.732498 233.732895,252.364670 233.527939,251.996857 
	C231.331604,253.177109 229.135269,254.357361 226.362854,256.001068 
M40.482826,169.812286 
	C35.365417,172.884323 34.763081,175.189896 37.345577,177.900131 
	C38.015301,176.288910 38.396019,173.553162 39.967438,172.185257 
	C41.161007,171.146271 44.683334,170.995712 45.710155,171.976944 
	C47.195232,173.396088 47.361137,176.195694 48.089825,178.406357 
	C48.854172,176.590256 49.476215,174.184448 48.716042,172.352051 
	C47.403267,169.187622 44.468029,168.497284 40.482826,169.812286 
M298.355835,179.221588 
	C297.360931,179.528259 296.366028,179.834915 295.371124,180.141586 
	C295.473480,180.615173 295.575867,181.088776 295.678223,181.562363 
	C297.094330,181.448853 298.510468,181.335342 299.926575,181.221832 
	C299.599335,180.606262 299.272095,179.990692 298.355835,179.221588 
M270.389313,220.350800 
	C271.135956,220.718887 271.882568,221.086975 272.629211,221.455078 
	C272.629211,220.262985 272.629211,219.070892 272.629211,217.878815 
	C272.253510,217.849503 271.877808,217.820190 271.502106,217.790878 
	C271.125244,218.449356 270.748383,219.107834 270.389313,220.350800 
M294.350372,201.231415 
	C295.214355,200.387772 296.078308,199.544128 296.942291,198.700470 
	C296.431610,198.337555 295.920898,197.974640 295.410217,197.611710 
	C294.941101,198.688065 294.472015,199.764404 294.350372,201.231415 
M274.472748,215.831619 
	C274.523193,215.623779 274.573608,215.415955 274.624054,215.208130 
	C274.507690,215.370773 274.391327,215.533417 274.472748,215.831619 
M260.651276,196.224106 
	C260.339905,196.487152 260.028564,196.750198 259.717194,197.013245 
	C260.158569,196.970596 260.599945,196.927948 260.651276,196.224106 
M292.416290,194.057877 
	C292.416290,194.057877 292.420319,193.966660 292.416290,194.057877 
z"/>
<path fill="#D3E242" opacity="1.000000" stroke="none" 
	d="
M186.084061,198.995331 
	C186.084061,204.301971 186.084061,209.109894 186.084061,214.245819 
	C183.975769,214.245819 182.238144,214.245819 179.899231,214.245819 
	C179.899231,199.261261 179.899231,184.371887 179.899231,169.216248 
	C173.535721,169.216248 167.765167,169.216248 161.405930,169.216248 
	C161.405930,184.076599 161.405930,198.975739 161.405930,214.221710 
	C159.087494,214.221710 157.349869,214.221710 155.040436,214.221710 
	C155.040436,199.306686 155.040436,184.415604 155.040436,169.236328 
	C148.575226,169.236328 142.676422,169.236328 136.356964,169.236328 
	C136.356964,180.918427 136.356964,192.361420 136.356964,204.245758 
	C134.224396,204.346970 132.482315,204.429657 130.210602,204.537476 
	C130.210602,192.322449 130.210602,180.409409 130.210602,168.496368 
	C129.724426,168.132126 129.238251,167.767899 128.752075,167.403671 
	C121.168274,173.933975 114.573723,181.610840 106.981186,188.564041 
	C105.447205,187.144135 104.141380,185.935425 102.444313,184.364563 
	C109.529457,177.121292 116.499100,169.996094 123.468750,162.870911 
	C123.227028,162.390289 122.985306,161.909683 122.743591,161.429077 
	C110.941475,161.429077 99.139359,161.429077 87.125931,161.429077 
	C87.125931,158.894775 87.125931,157.138153 87.125931,154.876465 
	C98.560791,154.876465 109.816002,154.876465 121.440704,154.876465 
	C121.440704,148.504929 121.440704,142.631744 121.440704,136.273331 
	C110.034790,136.273331 98.780960,136.273331 87.218063,136.273331 
	C87.218063,134.057465 87.218063,132.315674 87.218063,130.112823 
	C98.439026,130.112823 109.705193,130.112823 121.392982,130.112823 
	C121.392982,123.791573 121.392982,117.914139 121.392982,111.502167 
	C110.061615,111.502167 98.799942,111.502167 87.222321,111.502167 
	C87.222321,109.227379 87.222321,107.473083 87.222321,105.136742 
	C98.450539,105.136742 109.837646,105.136742 121.516960,105.136742 
	C121.516960,98.822189 121.516960,93.081856 121.516960,86.751869 
	C110.144547,86.751869 98.905083,86.751869 87.286263,86.751869 
	C87.286263,84.309311 87.286263,82.446030 87.286263,80.032051 
	C92.584396,80.032051 97.840271,80.032051 103.015572,80.032051 
	C105.857712,57.194420 109.251320,53.531639 129.773346,51.081043 
	C129.773346,45.884811 129.773346,40.625202 129.773346,35.037956 
	C132.077713,35.037956 133.966217,35.037956 136.286591,35.037956 
	C136.286591,47.351910 136.286591,59.463093 136.286591,71.927399 
	C142.599518,71.927399 148.486221,71.927399 154.774887,71.927399 
	C154.774887,59.588600 154.774887,47.477142 154.774887,35.041862 
	C156.922089,35.041862 158.674957,35.041862 161.047943,35.041862 
	C161.047943,47.215935 161.047943,59.426601 161.047943,71.955673 
	C167.538177,71.955673 173.412903,71.955673 179.710495,71.955673 
	C179.710495,59.538673 179.710495,47.425739 179.710495,35.016403 
	C181.891129,35.016403 183.652145,35.016403 185.993103,35.016403 
	C185.993103,47.257275 185.993103,59.474613 185.993103,71.948669 
	C192.456055,71.948669 198.340607,71.948669 204.660767,71.948669 
	C204.660767,59.512199 204.660767,47.405949 204.660767,35.008278 
	C206.843964,35.008278 208.594742,35.008278 210.825867,35.008278 
	C210.825867,40.243748 210.825867,45.490246 210.825867,51.222046 
	C218.697464,51.682636 226.191879,52.429970 231.730087,58.314445 
	C237.292450,64.224617 238.152802,71.590240 237.812729,79.872482 
	C243.179138,79.872482 248.392761,79.872482 253.846024,79.872482 
	C253.846024,82.260643 253.846024,84.017685 253.846024,86.418030 
	C242.070251,86.418030 230.346222,86.418030 218.360947,86.418030 
	C218.360947,92.807503 218.360947,98.567291 218.360947,104.871567 
	C230.160782,104.871567 241.897629,104.871567 253.863464,104.871567 
	C253.863464,107.169746 253.863464,108.928146 253.863464,111.330002 
	C242.048279,111.330002 230.324020,111.330002 218.351807,111.330002 
	C218.351807,117.728508 218.351807,123.488419 218.351807,129.839951 
	C230.202545,129.839951 241.929169,129.839951 253.863983,129.839951 
	C253.863983,132.168976 253.863983,133.908127 253.863983,136.105255 
	C242.044876,136.105255 230.449265,136.105255 218.472656,136.105255 
	C218.472656,142.425232 218.472656,148.296997 218.472656,154.768494 
	C230.296005,154.768494 242.037735,154.768494 253.932800,154.768494 
	C253.932800,157.140198 253.932800,158.919754 253.932800,161.129639 
	C242.078720,161.129639 230.371521,161.129639 217.529541,161.129639 
	C224.201630,168.522079 230.153214,175.116226 236.474579,182.120071 
	C234.988754,183.539917 233.631302,184.837082 231.899979,186.491531 
	C226.717194,180.845551 221.849106,175.434784 216.835754,170.162155 
	C215.688049,168.955109 214.039871,168.223953 212.622025,167.273773 
	C212.084610,169.030090 211.106888,170.780228 211.082169,172.543716 
	C210.935577,183.004883 211.009796,193.469131 211.009796,204.218842 
	C208.838562,204.218842 207.078690,204.218842 204.728958,204.218842 
	C204.728958,192.572556 204.728958,180.998138 204.728958,169.188843 
	C198.368820,169.188843 192.586777,169.188843 186.084061,169.188843 
	C186.084061,178.973541 186.084061,188.735077 186.084061,198.995331 
M165.478531,143.593369 
	C166.183365,137.113419 160.052765,141.476761 158.229279,139.053329 
	C158.229279,137.236420 158.229279,135.455750 158.229279,133.523483 
	C165.334747,133.523483 172.201462,133.523483 179.098572,133.523483 
	C179.098572,135.793594 179.098572,137.691956 179.098572,139.644775 
	C176.592270,139.804230 174.487778,139.938126 172.207886,140.083176 
	C172.207886,147.473038 172.207886,154.566376 172.207886,162.288254 
	C183.299057,162.288254 194.241226,162.334045 205.182724,162.268616 
	C210.531143,162.236633 211.796921,160.903488 211.806107,155.295181 
	C211.843796,132.313873 211.841751,109.332436 211.809402,86.351105 
	C211.800552,80.067337 210.580048,78.942688 204.106918,78.939911 
	C181.458603,78.930183 158.810303,78.932976 136.161987,78.937965 
	C129.076599,78.939529 128.091370,79.902199 128.086716,86.954132 
	C128.073212,107.437523 128.122528,127.921036 128.067947,148.404297 
	C128.029694,162.765106 127.176216,162.396957 141.883835,162.299271 
	C149.634750,162.247803 157.386276,162.290192 165.481842,162.290192 
	C165.481842,155.856384 165.481842,150.214172 165.478531,143.593369 
M222.733902,80.068199 
	C225.483505,80.068199 228.233109,80.068199 230.878799,80.068199 
	C232.575897,64.668938 225.535263,57.062794 211.004166,58.342457 
	C211.004166,61.898758 210.985184,65.516426 211.008957,69.133820 
	C211.038513,73.632957 217.242508,79.887787 222.733902,80.068199 
M120.090050,59.188915 
	C111.467987,63.084965 108.053635,70.694099 110.598541,79.233170 
	C119.369812,83.499718 125.067680,77.599976 129.154495,72.341873 
	C131.510025,69.311234 129.581909,62.951176 129.581909,57.564419 
	C126.386398,58.087959 123.628845,58.539745 120.090050,59.188915 
z"/>
<path fill="#E5B306" opacity="1.000000" stroke="none" 
	d="
M269.535583,164.922729 
	C268.706940,165.418594 267.594971,165.733017 267.128723,166.461014 
	C266.655396,167.200073 266.937225,168.381226 266.671051,169.306229 
	C266.405090,170.230408 265.869904,171.077103 265.477234,171.906097 
	C271.996643,177.160919 273.283600,176.991882 275.046570,170.202499 
	C274.425934,171.727692 272.846863,173.946686 273.357910,174.652664 
	C275.150848,177.129532 277.663391,179.085526 280.319733,181.640289 
	C282.600555,177.871658 284.431671,174.846146 286.262756,171.820618 
	C286.688721,172.059235 287.114655,172.297852 287.540588,172.536469 
	C285.480133,176.397507 283.419678,180.258545 281.140259,184.529953 
	C274.631592,180.956406 268.585114,177.636612 262.578491,174.338684 
	C263.397797,169.719467 265.812622,167.108597 269.641663,165.419495 
	C269.476654,164.954391 269.535583,164.922714 269.535583,164.922729 
z"/>
<path fill="#EDB805" opacity="1.000000" stroke="none" 
	d="
M77.051003,173.135468 
	C74.113617,174.043015 71.176231,174.950562 67.470764,176.095413 
	C68.985336,178.432770 69.805931,179.699158 70.872757,181.479919 
	C71.083206,182.209671 71.047440,182.425018 71.011665,182.640350 
	C69.367455,186.460983 67.723244,190.281616 65.985611,194.319336 
	C63.348667,191.846832 65.191833,188.762955 66.349266,185.904846 
	C67.386803,183.342758 69.204964,180.959030 66.529709,178.054871 
	C63.930416,179.710846 61.443802,181.295029 58.933338,182.894409 
	C57.718452,179.955444 63.107052,175.441788 75.351509,169.056534 
	C75.915558,170.141312 76.482887,171.232407 77.041260,172.690933 
	C77.032295,173.058365 77.051003,173.135483 77.051003,173.135468 
z"/>
<path fill="#E6B406" opacity="1.000000" stroke="none" 
	d="
M185.297256,224.988785 
	C183.271072,228.748856 183.832031,231.658066 187.498581,233.527451 
	C182.761215,235.717941 187.100510,239.386337 186.092010,242.916626 
	C190.151291,242.472076 193.734299,242.079697 197.317307,241.687302 
	C197.383118,242.176483 197.448914,242.665665 197.514725,243.154861 
	C193.274200,243.878860 189.033676,244.602875 184.017639,245.459290 
	C182.815857,238.191269 181.677124,231.304626 180.419357,223.697998 
	C182.719681,223.938004 184.286926,224.098511 185.852173,224.276657 
	C185.910385,224.283295 186.014755,224.500244 185.984024,224.553009 
	C185.903320,224.691513 185.759750,224.793381 185.297256,224.988785 
z"/>
<path fill="#E3B206" opacity="1.000000" stroke="none" 
	d="
M294.459839,150.908600 
	C293.815765,148.765579 293.081512,146.973526 292.347229,145.181458 
	C290.612122,145.915604 288.606079,146.319153 287.208252,147.464783 
	C285.319641,149.012665 284.124023,151.409943 282.227142,152.943024 
	C278.851898,155.670959 275.309631,153.799042 274.418732,148.295761 
	C278.561920,153.750519 280.944794,150.784195 283.391022,147.341904 
	C284.431458,145.877792 285.770660,144.581711 287.143890,143.407913 
	C289.757050,141.174286 293.024963,141.413696 294.521576,143.990158 
	C295.751068,146.106781 295.044830,149.347794 295.196594,152.090454 
	C295.042175,152.072998 294.809998,152.112015 294.748383,152.027176 
	C294.583099,151.799637 294.490845,151.519073 294.459839,150.908600 
z"/>
<path fill="#E9B506" opacity="1.000000" stroke="none" 
	d="
M153.451157,234.263336 
	C153.934128,230.311005 154.339722,226.800903 154.745331,223.290802 
	C155.511993,223.369614 156.278656,223.448410 157.045303,223.527222 
	C156.664932,229.928238 156.284561,236.329269 155.883301,243.081787 
	C159.419220,243.612991 162.687805,244.104019 165.956375,244.595062 
	C165.898193,245.053070 165.840012,245.511078 165.781830,245.969070 
	C161.559738,245.626663 157.337631,245.284256 152.756439,244.912735 
	C152.976639,241.271988 153.175201,237.988785 153.451157,234.263336 
z"/>
<path fill="#E6B306" opacity="1.000000" stroke="none" 
	d="
M118.098137,210.848770 
	C117.480827,211.189362 116.655945,211.313538 115.829437,211.325470 
	C112.258400,211.377090 110.967468,213.367859 112.790741,216.441025 
	C113.961006,218.413528 115.724228,220.024994 117.004829,221.943039 
	C120.458755,227.116257 118.781578,230.493561 111.091034,231.699036 
	C118.509903,227.375931 114.917488,223.840820 111.782028,220.129364 
	C109.863869,217.858810 107.824196,215.397034 109.977219,212.162003 
	C112.056671,209.037506 114.904106,209.371231 118.098137,210.848770 
z"/>
<path fill="#E8B506" opacity="1.000000" stroke="none" 
	d="
M91.386398,199.431213 
	C90.952126,201.055573 90.745003,202.432861 90.538574,203.805527 
	C86.606659,203.185806 83.134125,207.245987 83.768387,213.953033 
	C82.206123,211.684921 81.191269,210.211548 79.870171,208.293549 
	C84.033524,203.513489 88.575714,198.298462 93.498634,192.646301 
	C94.586990,193.836563 95.469162,194.801331 96.138039,195.532837 
	C94.343521,196.981033 92.978523,198.082596 91.386398,199.431213 
z"/>
<path fill="#E6B306" opacity="1.000000" stroke="none" 
	d="
M55.666119,152.555283 
	C52.338627,153.570801 49.380566,154.435593 46.422501,155.300369 
	C46.167423,154.921799 45.912346,154.543228 45.657269,154.164658 
	C46.508369,153.398087 47.234867,152.284393 48.232574,151.926285 
	C52.124931,150.529190 56.075577,149.272644 60.059120,148.159103 
	C62.745384,147.408218 65.369247,146.873367 62.852547,142.503677 
	C63.534054,142.579559 64.215561,142.655426 64.897064,142.731308 
	C65.856972,145.869812 66.816887,149.008316 67.776794,152.146820 
	C63.290417,147.476257 59.661663,152.218048 55.666119,152.555283 
z"/>
<path fill="#E7B406" opacity="1.000000" stroke="none" 
	d="
M214.962082,215.011642 
	C210.408539,221.981537 209.790070,225.466385 213.812347,229.720810 
	C216.121109,232.162842 219.766357,233.341293 222.285141,234.787308 
	C218.609360,236.787186 212.938721,234.915695 209.942810,229.826981 
	C206.915268,224.684601 208.767334,218.327530 214.632706,214.993378 
	C215.000870,214.993881 214.962082,215.011642 214.962082,215.011642 
z"/>
<path fill="#323426" opacity="1.000000" stroke="none" 
	d="
M121.861107,272.972351 
	C122.763397,268.991547 123.665695,265.010773 124.567993,261.029968 
	C124.971306,261.146454 125.374619,261.262909 125.971863,261.987152 
	C129.370422,263.578064 132.035645,265.066132 131.063370,269.089752 
	C130.105438,273.054016 127.164719,273.369171 123.782433,272.741547 
	C123.177101,272.629242 122.503296,272.886017 121.861107,272.972351 
z"/>
<path fill="#C6D440" opacity="1.000000" stroke="none" 
	d="
M55.916527,194.174591 
	C53.119255,197.981567 50.145428,201.493423 47.171600,205.005264 
	C49.024696,198.493652 48.565060,197.508377 42.086727,193.879471 
	C46.637810,193.879471 51.188892,193.879471 55.916527,194.174591 
z"/>
<path fill="#F3BD04" opacity="1.000000" stroke="none" 
	d="
M252.126068,200.974457 
	C255.929108,200.701981 259.263672,200.429489 262.598206,200.156998 
	C262.641571,199.574753 262.684937,198.992493 262.728302,198.410248 
	C264.106323,199.721100 265.484314,201.031967 267.471741,202.922531 
	C259.067780,204.014648 251.061508,202.041901 243.488098,203.786758 
	C243.477631,204.326080 243.467163,204.865387 243.456711,205.404694 
	C242.064926,203.896225 240.673141,202.387741 238.259262,199.771454 
	C243.663467,200.256683 247.660538,200.615555 252.126068,200.974457 
z"/>
<path fill="#C1CF3F" opacity="1.000000" stroke="none" 
	d="
M167.698822,273.278259 
	C168.641342,276.254028 169.422516,278.875885 170.512680,282.534912 
	C165.372955,277.238068 163.848663,277.168457 159.890854,280.724823 
	C159.944016,280.115021 159.837753,278.856049 160.199966,277.750580 
	C160.765396,276.024902 161.533508,274.337372 162.437378,272.760742 
	C163.033356,271.721222 164.018265,270.904663 164.829025,269.988251 
	C165.731842,270.966949 166.634659,271.945648 167.698822,273.278259 
z"/>
<path fill="#B8C53E" opacity="1.000000" stroke="none" 
	d="
M226.650879,255.769348 
	C229.135269,254.357361 231.331604,253.177109 233.527939,251.996857 
	C233.732895,252.364670 233.937836,252.732498 234.142792,253.100327 
	C232.318893,254.323380 230.494995,255.546417 228.673416,256.767914 
	C229.746246,259.894318 229.746246,259.894318 235.318222,258.796661 
	C233.945923,259.917023 232.573624,261.037384 229.829117,263.278046 
	C232.297150,263.764893 233.777649,264.462006 235.071655,264.208252 
	C236.643219,263.900055 238.057526,262.789856 239.539871,262.026642 
	C239.766571,262.476227 239.993271,262.925842 240.219971,263.375427 
	C237.613922,264.817139 235.007889,266.258850 231.510757,268.193512 
	C229.685287,263.869995 228.024063,259.935547 226.650879,255.769348 
z"/>
<path fill="#E3B106" opacity="1.000000" stroke="none" 
	d="
M225.926743,232.020065 
	C231.420639,224.533310 229.615494,218.874481 220.175446,213.990738 
	C224.130783,212.627487 228.199738,214.376205 230.477982,218.418442 
	C233.106964,223.082993 232.103210,227.994873 227.075256,232.121918 
	C226.280975,232.136337 226.103851,232.078201 225.926743,232.020065 
z"/>
<path fill="#B5C23D" opacity="1.000000" stroke="none" 
	d="
M40.848572,169.675690 
	C44.468029,168.497284 47.403267,169.187622 48.716042,172.352051 
	C49.476215,174.184448 48.854172,176.590256 48.089825,178.406357 
	C47.361137,176.195694 47.195232,173.396088 45.710155,171.976944 
	C44.683334,170.995712 41.161007,171.146271 39.967438,172.185257 
	C38.396019,173.553162 38.015301,176.288910 37.345577,177.900131 
	C34.763081,175.189896 35.365417,172.884323 40.848572,169.675690 
z"/>
<path fill="#C2D040" opacity="1.000000" stroke="none" 
	d="
M122.005745,273.321045 
	C122.503296,272.886017 123.177101,272.629242 123.782433,272.741547 
	C127.164719,273.369171 130.105438,273.054016 131.063370,269.089752 
	C132.035645,265.066132 129.370422,263.578064 126.063751,262.231903 
	C131.194214,262.129272 133.470352,264.335388 132.864822,268.559692 
	C132.192627,273.249146 128.996796,275.295563 124.044708,274.194550 
	C123.405952,274.052521 122.781471,273.846222 122.005745,273.321045 
z"/>
<path fill="#EFBA04" opacity="1.000000" stroke="none" 
	d="
M71.269028,182.881516 
	C71.047440,182.425018 71.083206,182.209671 71.168732,181.670670 
	C71.794807,181.449738 72.371147,181.552429 73.514465,181.716309 
	C74.081444,181.777481 74.449654,181.817947 74.449654,181.817947 
	C74.449654,181.817947 74.760269,181.613907 74.760269,181.613907 
	C76.233910,180.173676 77.707550,178.733444 80.494621,176.009552 
	C79.992043,178.902985 80.203758,180.976456 79.294724,182.249847 
	C77.240532,185.127380 74.376801,185.087921 71.269028,182.881516 
z"/>
<path fill="#BAC73E" opacity="1.000000" stroke="none" 
	d="
M89.107071,238.952438 
	C92.604034,241.313583 93.252075,244.410141 90.997948,247.859879 
	C88.803757,251.217911 85.803635,252.299805 82.055710,249.485001 
	C82.123337,248.843414 82.260582,248.688110 82.777328,248.683182 
	C86.076691,250.056671 88.942719,249.163086 89.513496,246.420456 
	C89.956764,244.290497 88.197662,241.702225 87.839859,239.226288 
	C88.543846,239.074097 88.825455,239.013275 89.107071,238.952438 
z"/>
<path fill="#B5C23D" opacity="1.000000" stroke="none" 
	d="
M284.017303,197.959290 
	C287.222290,200.226227 290.427277,202.493149 293.632294,204.760071 
	C293.906921,204.362274 294.181519,203.964478 294.456146,203.566681 
	C294.511627,203.871719 294.713867,204.367645 294.601318,204.454178 
	C290.795074,207.380676 288.424683,203.142883 285.346741,202.433716 
	C283.965179,202.115402 280.786011,201.811722 283.146545,198.282410 
	C283.676392,197.919632 283.846863,197.939453 284.017303,197.959290 
z"/>
<path fill="#B2BE3D" opacity="1.000000" stroke="none" 
	d="
M301.970795,171.913208 
	C294.576080,170.163910 292.888763,171.346649 293.256287,178.021683 
	C292.806763,177.971878 292.357239,177.922089 291.907745,177.872284 
	C292.138763,175.787003 291.714264,173.277359 292.733795,171.702530 
	C295.038116,168.143051 298.503174,168.621368 301.987061,170.934937 
	C302.058685,171.580399 302.014740,171.746811 301.970795,171.913208 
z"/>
<path fill="#B5C23D" opacity="1.000000" stroke="none" 
	d="
M81.776489,249.228333 
	C80.427986,248.593842 79.289101,247.729736 77.925346,246.695023 
	C79.739700,244.505173 81.287415,242.637146 83.323250,240.775192 
	C83.964272,240.936447 84.117180,241.091644 84.147728,241.562958 
	C83.278297,244.046936 79.057938,245.365250 82.397835,248.532806 
	C82.260582,248.688110 82.123337,248.843414 81.776489,249.228333 
z"/>
<path fill="#292A25" opacity="1.000000" stroke="none" 
	d="
M298.650330,179.298355 
	C299.272095,179.990692 299.599335,180.606262 299.926575,181.221832 
	C298.510468,181.335342 297.094330,181.448853 295.678223,181.562363 
	C295.575867,181.088776 295.473480,180.615173 295.371124,180.141586 
	C296.366028,179.834915 297.360931,179.528259 298.650330,179.298355 
z"/>
<path fill="#303127" opacity="1.000000" stroke="none" 
	d="
M270.380432,220.058563 
	C270.748383,219.107834 271.125244,218.449356 271.502106,217.790878 
	C271.877808,217.820190 272.253510,217.849503 272.629211,217.878815 
	C272.629211,219.070892 272.629211,220.262985 272.629211,221.455078 
	C271.882568,221.086975 271.135956,220.718887 270.380432,220.058563 
z"/>
<path fill="#2A2B26" opacity="1.000000" stroke="none" 
	d="
M294.176636,201.036072 
	C294.472015,199.764404 294.941101,198.688065 295.410217,197.611710 
	C295.920898,197.974640 296.431610,198.337555 296.942291,198.700470 
	C296.078308,199.544128 295.214355,200.387772 294.176636,201.036072 
z"/>
<path fill="#B5C23D" opacity="1.000000" stroke="none" 
	d="
M88.906792,238.678925 
	C88.825455,239.013275 88.543846,239.074097 87.563942,239.218140 
	C86.000465,239.949844 85.135284,240.598358 84.270096,241.246857 
	C84.117180,241.091644 83.964272,240.936447 83.582733,240.547729 
	C84.808128,238.752258 85.543015,235.173798 88.906792,238.678925 
z"/>
<path fill="#303127" opacity="1.000000" stroke="none" 
	d="
M275.961029,227.056381 
	C274.776062,226.386185 273.591095,225.716003 272.406128,225.045807 
	C272.705017,224.598587 273.003937,224.151352 273.302826,223.704132 
	C274.201477,224.572495 275.100159,225.440857 276.005432,226.656006 
	C276.012054,227.002777 275.961029,227.056381 275.961029,227.056381 
z"/>
<path fill="#303127" opacity="1.000000" stroke="none" 
	d="
M280.933838,218.076279 
	C279.834503,217.353897 278.735168,216.631516 277.635864,215.909134 
	C277.932404,215.523849 278.228973,215.138565 278.525543,214.753265 
	C279.300446,215.630951 280.075348,216.508636 280.924011,217.695877 
	C280.997803,218.005432 280.933838,218.076279 280.933838,218.076279 
z"/>
<path fill="#303127" opacity="1.000000" stroke="none" 
	d="
M281.030457,217.970642 
	C281.758331,218.172546 282.453552,218.409241 283.148804,218.645950 
	C283.034821,218.912292 282.920837,219.178650 282.806854,219.444992 
	C282.260345,219.146408 281.713806,218.847839 281.050568,218.312775 
	C280.933838,218.076279 280.997803,218.005432 281.030457,217.970642 
z"/>
<path fill="#312D23" opacity="1.000000" stroke="none" 
	d="
M77.070969,173.049530 
	C77.593529,173.422104 78.105659,173.775879 78.532867,174.212708 
	C78.602234,174.283646 78.295326,174.722565 78.162338,174.991394 
	C77.796890,174.547668 77.431427,174.103958 77.058487,173.397858 
	C77.051003,173.135483 77.032295,173.058365 77.070969,173.049530 
z"/>
<path fill="#292A25" opacity="1.000000" stroke="none" 
	d="
M302.052032,172.129517 
	C302.014740,171.746811 302.058685,171.580399 302.258209,171.207993 
	C302.768066,171.573502 303.122345,172.145035 303.476593,172.716553 
	C303.028809,172.592987 302.581055,172.469421 302.052032,172.129517 
z"/>
<path fill="#272623" opacity="1.000000" stroke="none" 
	d="
M214.991928,215.013077 
	C215.251450,214.718506 215.519913,214.404724 215.788361,214.090942 
	C215.980133,214.266434 216.171890,214.441895 216.363647,214.617355 
	C216.020920,214.780716 215.678207,214.944077 215.148773,215.059540 
	C214.962082,215.011642 215.000870,214.993881 214.991928,215.013077 
z"/>
<path fill="#272623" opacity="1.000000" stroke="none" 
	d="
M225.771515,232.075531 
	C226.103851,232.078201 226.280975,232.136337 226.732635,232.247345 
	C226.553497,232.567520 226.099792,232.834824 225.646088,233.102112 
	C225.636154,232.778412 225.626221,232.454697 225.771515,232.075531 
z"/>
<path fill="#303127" opacity="1.000000" stroke="none" 
	d="
M280.857819,223.911514 
	C281.509796,223.532379 282.161743,223.153244 282.813721,222.774124 
	C282.925018,222.999802 283.036285,223.225494 283.147583,223.451172 
	C282.668823,223.681137 282.190063,223.911087 281.376953,224.098389 
	C281.042603,224.055725 280.857819,223.911514 280.857819,223.911514 
z"/>
<path fill="#303127" opacity="1.000000" stroke="none" 
	d="
M274.373840,215.763840 
	C274.391327,215.533417 274.507690,215.370773 274.624023,215.208130 
	C274.573608,215.415955 274.523193,215.623779 274.373840,215.763840 
z"/>
<path fill="#2A2B26" opacity="1.000000" stroke="none" 
	d="
M284.063324,197.785522 
	C283.846863,197.939453 283.676392,197.919632 283.253967,197.952423 
	C283.253754,197.608597 283.505524,197.212189 283.757294,196.815765 
	C283.874664,197.081085 283.992004,197.346405 284.063324,197.785522 
z"/>
<path fill="#303127" opacity="1.000000" stroke="none" 
	d="
M281.133881,224.129211 
	C281.057678,224.407944 280.890228,224.613174 280.722748,224.818420 
	C280.706238,224.593826 280.689728,224.369232 280.765503,224.028076 
	C280.857819,223.911514 281.042603,224.055725 281.133881,224.129211 
z"/>
<path fill="#F3BD04" opacity="1.000000" stroke="none" 
	d="
M260.846313,196.554718 
	C260.599945,196.927948 260.158569,196.970596 259.717194,197.013245 
	C260.028564,196.750198 260.339905,196.487152 260.846313,196.554718 
z"/>
<path fill="#2A2B26" opacity="1.000000" stroke="none" 
	d="
M292.418304,194.012268 
	C292.420319,193.966660 292.416290,194.057877 292.418304,194.012268 
z"/>
<path fill="#E5B306" opacity="1.000000" stroke="none" 
	d="
M269.443298,164.956894 
	C269.730194,164.816254 270.050446,164.673111 270.370728,164.529968 
	C270.070007,164.265182 269.769318,164.000397 269.468628,163.735596 
	C269.227173,164.139252 268.985748,164.542908 269.139954,164.934631 
	C269.535583,164.922714 269.476654,164.954391 269.443298,164.956894 
z"/>
<path fill="#303127" opacity="1.000000" stroke="none" 
	d="
M276.039581,226.978043 
	C276.067108,226.953308 276.034912,227.128693 275.997986,227.092529 
	C275.961029,227.056381 276.012054,227.002777 276.039581,226.978043 
z"/>
<path fill="#312D23" opacity="1.000000" stroke="none" 
	d="
M74.605362,181.532166 
	C74.760269,181.613907 74.449654,181.817947 74.449654,181.817947 
	C74.449654,181.817947 74.081444,181.777481 73.951111,181.662781 
	C74.009270,181.380600 74.219162,181.348038 74.605362,181.532166 
z"/>
<path fill="#252524" opacity="1.000000" stroke="none" 
	d="
M165.480194,144.082672 
	C165.481842,150.214172 165.481842,155.856384 165.481842,162.290192 
	C157.386276,162.290192 149.634750,162.247803 141.883835,162.299271 
	C127.176216,162.396957 128.029694,162.765106 128.067947,148.404297 
	C128.122528,127.921036 128.073212,107.437523 128.086716,86.954132 
	C128.091370,79.902199 129.076599,78.939529 136.161987,78.937965 
	C158.810303,78.932976 181.458603,78.930183 204.106918,78.939911 
	C210.580048,78.942688 211.800552,80.067337 211.809402,86.351105 
	C211.841751,109.332436 211.843796,132.313873 211.806107,155.295181 
	C211.796921,160.903488 210.531143,162.236633 205.182724,162.268616 
	C194.241226,162.334045 183.299057,162.288254 172.207886,162.288254 
	C172.207886,154.566376 172.207886,147.473038 172.207886,140.083176 
	C174.487778,139.938126 176.592270,139.804230 179.098572,139.644775 
	C179.098572,137.691956 179.098572,135.793594 179.098572,133.523483 
	C172.201462,133.523483 165.334747,133.523483 158.229279,133.523483 
	C158.229279,135.455750 158.229279,137.236420 158.229279,139.053329 
	C160.052765,141.476761 166.183365,137.113419 165.480194,144.082672 
M186.976273,113.046913 
	C192.892349,111.469604 198.808441,109.892296 205.165726,108.197357 
	C204.598129,106.011909 204.116714,104.158279 203.541733,101.944366 
	C196.238770,103.895088 189.275009,105.755203 181.407959,107.856606 
	C183.868668,109.653557 181.369873,114.148094 186.976273,113.046913 
M141.716370,110.736115 
	C145.667679,111.732712 149.619003,112.729301 153.817093,113.788139 
	C154.346832,111.445045 154.762161,109.608063 155.200073,107.671150 
	C149.338318,106.047127 144.081131,104.570923 138.810745,103.143471 
	C137.393158,102.759529 135.935425,102.523842 134.146362,102.146278 
	C133.571640,104.104286 133.038818,105.919571 132.399109,108.098984 
	C135.583694,108.997604 138.264709,109.754143 141.716370,110.736115 
z"/>
<path fill="#262624" opacity="1.000000" stroke="none" 
	d="
M222.278290,80.068146 
	C217.242508,79.887787 211.038513,73.632957 211.008957,69.133820 
	C210.985184,65.516426 211.004166,61.898758 211.004166,58.342457 
	C225.535263,57.062794 232.575897,64.668938 230.878799,80.068199 
	C228.233109,80.068199 225.483505,80.068199 222.278290,80.068146 
z"/>
<path fill="#262725" opacity="1.000000" stroke="none" 
	d="
M120.480667,59.090225 
	C123.628845,58.539745 126.386398,58.087959 129.581909,57.564419 
	C129.581909,62.951176 131.510025,69.311234 129.154495,72.341873 
	C125.067680,77.599976 119.369812,83.499718 110.598541,79.233170 
	C108.053635,70.694099 111.467987,63.084965 120.480667,59.090225 
z"/>
<path fill="#2B2B25" opacity="1.000000" stroke="none" 
	d="
M84.147736,241.562958 
	C85.135284,240.598358 86.000465,239.949844 87.141556,239.309494 
	C88.197662,241.702225 89.956764,244.290497 89.513496,246.420456 
	C88.942719,249.163086 86.076691,250.056671 82.777328,248.683182 
	C79.057938,245.365250 83.278297,244.046936 84.147736,241.562958 
z"/>
<path fill="#C9D841" opacity="1.000000" stroke="none" 
	d="
M186.605209,113.135468 
	C181.369873,114.148094 183.868668,109.653557 181.407959,107.856606 
	C189.275009,105.755203 196.238770,103.895088 203.541733,101.944366 
	C204.116714,104.158279 204.598129,106.011909 205.165726,108.197357 
	C198.808441,109.892296 192.892349,111.469604 186.605209,113.135468 
z"/>
<path fill="#CDDC41" opacity="1.000000" stroke="none" 
	d="
M141.331055,110.623398 
	C138.264709,109.754143 135.583694,108.997604 132.399109,108.098984 
	C133.038818,105.919571 133.571640,104.104286 134.146362,102.146278 
	C135.935425,102.523842 137.393158,102.759529 138.810745,103.143471 
	C144.081131,104.570923 149.338318,106.047127 155.200073,107.671150 
	C154.762161,109.608063 154.346832,111.445045 153.817093,113.788139 
	C149.619003,112.729301 145.667679,111.732712 141.331055,110.623398 
z"/>
</svg>